<?xml version="1.0" encoding="UTF-8"?>
<svg width="2039px" height="997px" viewBox="0 0 2039 997" version="1.1" xmlns="http://www.w3.org/2000/svg" xmlns:xlink="http://www.w3.org/1999/xlink">
    <title>ukc-hero</title>
    <g id="ukc-hero" stroke="none" stroke-width="1" fill="none" fill-rule="evenodd">
        <path d="M480.484375,-0.0703125 C480.161458,135.841146 480,252.197917 480,349 C480,427.254948 434,443 392,443 C354.170912,443 315,476.7306 315,534 C315,616.807292 315,736.854167 315,894.140625" id="Path" stroke="#00C1D6" stroke-width="24"></path>
        <path d="M561.484375,-0.0703125 C561.161458,114.507813 561,220.197917 561,317" id="Path" stroke="#77CB59" stroke-width="24"></path>
        <path d="M369.484375,-0.0703125 C369.161458,157.841146 369,285.197917 369,382 C369,509 428,511 462,529 C499.55264,548.88081 541,566 541,658.859375 C541,686.953125 541,717 541,749" id="Path" stroke="#00C1D6" stroke-width="24"></path>
        <path d="M301.484375,-0.0703125 C301.161458,29.1744792 301,92.1979167 301,189 C301,267.254948 245,301 203,307 C165.224408,312.396513 95,362.7306 95,420 C95,502.807292 95,547.473958 95,554" id="Path" stroke="#77CB59" stroke-width="24"></path>
        <path d="M427.484375,-0.0703125 C427.161458,43.2116457 427,113.235083 427,210 C427,265 440.682604,326.614615 351,359 C315,372 222,400 222,476.859375 C222,559.666667 222,612.046875 222,634" id="Path" stroke="#00C1D6" stroke-width="24"></path>
        <path d="M193.484375,-0.0703125 C193.161458,135.841146 193,252.197917 193,349 C193,427.254948 257.893953,461.242428 302,472 C343,482 398,526 398,576 C398,658.807292 398,700.474078 398,701.000358" id="Path" stroke="#77CB59" stroke-width="24"></path>
        <g id="Group" transform="translate(295.000000, 797.000000)">
            <rect id="Rectangle" fill="#00C1D6" x="8" y="0" width="24" height="107"></rect>
            <path d="M8,41.4472656 C8,60 0,73.000671 0,107 C0,149 3,136 3,140 C3,144 3,146 4,146 C7,146 33,146 36,146 C37,146 37,144 37,140 C37,136 40,149 40,107 C40,65 32,60 32,41.4472656 C32,22.8945313 8,22.8945313 8,41.4472656 Z" id="Path-2" fill="#00C1D6"></path>
            <rect id="Rectangle" fill="#85CFDA" x="4" y="107" width="32" height="39"></rect>
            <rect id="Rectangle" fill="#85CFDA" x="9" y="146" width="22" height="3"></rect>
            <rect id="Rectangle" fill="#008394" x="15" y="104" width="10" height="30"></rect>
            <rect id="Rectangle" fill="#005C6B" x="9" y="126" width="22" height="2"></rect>
            <rect id="Rectangle" fill="#005C6B" transform="translate(9.500000, 134.000000) scale(-1, 1) translate(-9.500000, -134.000000) " x="9" y="128" width="1" height="12"></rect>
            <rect id="Rectangle" fill="#005C6B" transform="translate(12.500000, 134.000000) scale(-1, 1) translate(-12.500000, -134.000000) " x="12" y="128" width="1" height="12"></rect>
            <rect id="Rectangle" fill="#005C6B" transform="translate(15.500000, 134.000000) scale(-1, 1) translate(-15.500000, -134.000000) " x="15" y="128" width="1" height="12"></rect>
            <rect id="Rectangle" fill="#005C6B" transform="translate(18.500000, 134.000000) scale(-1, 1) translate(-18.500000, -134.000000) " x="18" y="128" width="1" height="12"></rect>
            <rect id="Rectangle" fill="#005C6B" transform="translate(21.500000, 134.000000) scale(-1, 1) translate(-21.500000, -134.000000) " x="21" y="128" width="1" height="12"></rect>
            <rect id="Rectangle" fill="#005C6B" transform="translate(24.500000, 134.000000) scale(-1, 1) translate(-24.500000, -134.000000) " x="24" y="128" width="1" height="12"></rect>
            <rect id="Rectangle" fill="#005C6B" transform="translate(27.500000, 134.000000) scale(-1, 1) translate(-27.500000, -134.000000) " x="27" y="128" width="1" height="12"></rect>
            <rect id="Rectangle" fill="#005C6B" transform="translate(30.500000, 134.000000) scale(-1, 1) translate(-30.500000, -134.000000) " x="30" y="128" width="1" height="12"></rect>
            <rect id="Rectangle" fill="#00C1D6" transform="translate(9.500000, 144.500000) scale(-1, 1) translate(-9.500000, -144.500000) " x="9" y="140" width="1" height="9"></rect>
            <rect id="Rectangle" fill="#00C1D6" transform="translate(12.500000, 144.500000) scale(-1, 1) translate(-12.500000, -144.500000) " x="12" y="140" width="1" height="9"></rect>
            <rect id="Rectangle" fill="#00C1D6" transform="translate(15.500000, 144.500000) scale(-1, 1) translate(-15.500000, -144.500000) " x="15" y="140" width="1" height="9"></rect>
            <rect id="Rectangle" fill="#00C1D6" transform="translate(18.500000, 144.500000) scale(-1, 1) translate(-18.500000, -144.500000) " x="18" y="140" width="1" height="9"></rect>
            <rect id="Rectangle" fill="#00C1D6" transform="translate(21.500000, 144.500000) scale(-1, 1) translate(-21.500000, -144.500000) " x="21" y="140" width="1" height="9"></rect>
            <rect id="Rectangle" fill="#00C1D6" transform="translate(24.500000, 144.500000) scale(-1, 1) translate(-24.500000, -144.500000) " x="24" y="140" width="1" height="9"></rect>
            <rect id="Rectangle" fill="#00C1D6" transform="translate(27.500000, 144.500000) scale(-1, 1) translate(-27.500000, -144.500000) " x="27" y="140" width="1" height="9"></rect>
            <rect id="Rectangle" fill="#00C1D6" transform="translate(30.500000, 144.500000) scale(-1, 1) translate(-30.500000, -144.500000) " x="30" y="140" width="1" height="9"></rect>
            <rect id="Rectangle" stroke="#006372" fill="#006170" x="7" y="42" width="26" height="3" rx="1.5"></rect>
            <rect id="Rectangle" stroke="#006372" fill="#006170" x="6.5" y="49" width="27" height="3" rx="1.5"></rect>
            <rect id="Rectangle" stroke="#006372" fill="#006170" x="5.5" y="56" width="29" height="3" rx="1.5"></rect>
            <rect id="Rectangle" stroke="#006372" fill="#006170" x="4" y="63" width="32" height="3" rx="1.5"></rect>
            <rect id="Rectangle" stroke="#006372" fill="#006170" x="3" y="70" width="35" height="3" rx="1.5"></rect>
        </g>
        <g id="Group" transform="translate(202.000000, 532.000000)">
            <rect id="Rectangle" fill="#00C1D6" x="8" y="0" width="24" height="107"></rect>
            <path d="M8,41.4472656 C8,60 0,73.000671 0,107 C0,149 3,136 3,140 C3,144 3,146 4,146 C7,146 33,146 36,146 C37,146 37,144 37,140 C37,136 40,149 40,107 C40,65 32,60 32,41.4472656 C32,22.8945313 8,22.8945313 8,41.4472656 Z" id="Path-2" fill="#00C1D6"></path>
            <rect id="Rectangle" fill="#85CFDA" x="4" y="107" width="32" height="39"></rect>
            <rect id="Rectangle" fill="#85CFDA" x="9" y="146" width="22" height="3"></rect>
            <rect id="Rectangle" fill="#008394" x="15" y="104" width="10" height="30"></rect>
            <rect id="Rectangle" fill="#005C6B" x="9" y="126" width="22" height="2"></rect>
            <rect id="Rectangle" fill="#005C6B" transform="translate(9.500000, 134.000000) scale(-1, 1) translate(-9.500000, -134.000000) " x="9" y="128" width="1" height="12"></rect>
            <rect id="Rectangle" fill="#005C6B" transform="translate(12.500000, 134.000000) scale(-1, 1) translate(-12.500000, -134.000000) " x="12" y="128" width="1" height="12"></rect>
            <rect id="Rectangle" fill="#005C6B" transform="translate(15.500000, 134.000000) scale(-1, 1) translate(-15.500000, -134.000000) " x="15" y="128" width="1" height="12"></rect>
            <rect id="Rectangle" fill="#005C6B" transform="translate(18.500000, 134.000000) scale(-1, 1) translate(-18.500000, -134.000000) " x="18" y="128" width="1" height="12"></rect>
            <rect id="Rectangle" fill="#005C6B" transform="translate(21.500000, 134.000000) scale(-1, 1) translate(-21.500000, -134.000000) " x="21" y="128" width="1" height="12"></rect>
            <rect id="Rectangle" fill="#005C6B" transform="translate(24.500000, 134.000000) scale(-1, 1) translate(-24.500000, -134.000000) " x="24" y="128" width="1" height="12"></rect>
            <rect id="Rectangle" fill="#005C6B" transform="translate(27.500000, 134.000000) scale(-1, 1) translate(-27.500000, -134.000000) " x="27" y="128" width="1" height="12"></rect>
            <rect id="Rectangle" fill="#005C6B" transform="translate(30.500000, 134.000000) scale(-1, 1) translate(-30.500000, -134.000000) " x="30" y="128" width="1" height="12"></rect>
            <rect id="Rectangle" fill="#00C1D6" transform="translate(9.500000, 144.500000) scale(-1, 1) translate(-9.500000, -144.500000) " x="9" y="140" width="1" height="9"></rect>
            <rect id="Rectangle" fill="#00C1D6" transform="translate(12.500000, 144.500000) scale(-1, 1) translate(-12.500000, -144.500000) " x="12" y="140" width="1" height="9"></rect>
            <rect id="Rectangle" fill="#00C1D6" transform="translate(15.500000, 144.500000) scale(-1, 1) translate(-15.500000, -144.500000) " x="15" y="140" width="1" height="9"></rect>
            <rect id="Rectangle" fill="#00C1D6" transform="translate(18.500000, 144.500000) scale(-1, 1) translate(-18.500000, -144.500000) " x="18" y="140" width="1" height="9"></rect>
            <rect id="Rectangle" fill="#00C1D6" transform="translate(21.500000, 144.500000) scale(-1, 1) translate(-21.500000, -144.500000) " x="21" y="140" width="1" height="9"></rect>
            <rect id="Rectangle" fill="#00C1D6" transform="translate(24.500000, 144.500000) scale(-1, 1) translate(-24.500000, -144.500000) " x="24" y="140" width="1" height="9"></rect>
            <rect id="Rectangle" fill="#00C1D6" transform="translate(27.500000, 144.500000) scale(-1, 1) translate(-27.500000, -144.500000) " x="27" y="140" width="1" height="9"></rect>
            <rect id="Rectangle" fill="#00C1D6" transform="translate(30.500000, 144.500000) scale(-1, 1) translate(-30.500000, -144.500000) " x="30" y="140" width="1" height="9"></rect>
            <rect id="Rectangle" stroke="#006372" fill="#006170" x="7" y="42" width="26" height="3" rx="1.5"></rect>
            <rect id="Rectangle" stroke="#006372" fill="#006170" x="6.5" y="49" width="27" height="3" rx="1.5"></rect>
            <rect id="Rectangle" stroke="#006372" fill="#006170" x="5.5" y="56" width="29" height="3" rx="1.5"></rect>
            <rect id="Rectangle" stroke="#006372" fill="#006170" x="4" y="63" width="32" height="3" rx="1.5"></rect>
            <rect id="Rectangle" stroke="#006372" fill="#006170" x="3" y="70" width="35" height="3" rx="1.5"></rect>
        </g>
        <g id="Group" transform="translate(75.000000, 450.000000)">
            <rect id="Rectangle" fill="#77CB59" x="8" y="0" width="24" height="107"></rect>
            <path d="M8,41.4472656 C8,60 0,73.000671 0,107 C0,149 3,136 3,140 C3,144 3,146 4,146 C7,146 33,146 36,146 C37,146 37,144 37,140 C37,136 40,149 40,107 C40,65 32,60 32,41.4472656 C32,22.8945313 8,22.8945313 8,41.4472656 Z" id="Path-2" fill="#77CB59"></path>
            <rect id="Rectangle" fill="#38A333" x="4" y="107" width="32" height="39"></rect>
            <rect id="Rectangle" fill="#38A333" x="9" y="146" width="22" height="3"></rect>
            <rect id="Rectangle" fill="#007766" x="15" y="104" width="10" height="30"></rect>
            <rect id="Rectangle" fill="#005C6B" x="9" y="126" width="22" height="2"></rect>
            <rect id="Rectangle" fill="#005C6B" transform="translate(9.500000, 134.000000) scale(-1, 1) translate(-9.500000, -134.000000) " x="9" y="128" width="1" height="12"></rect>
            <rect id="Rectangle" fill="#005C6B" transform="translate(12.500000, 134.000000) scale(-1, 1) translate(-12.500000, -134.000000) " x="12" y="128" width="1" height="12"></rect>
            <rect id="Rectangle" fill="#005C6B" transform="translate(15.500000, 134.000000) scale(-1, 1) translate(-15.500000, -134.000000) " x="15" y="128" width="1" height="12"></rect>
            <rect id="Rectangle" fill="#005C6B" transform="translate(18.500000, 134.000000) scale(-1, 1) translate(-18.500000, -134.000000) " x="18" y="128" width="1" height="12"></rect>
            <rect id="Rectangle" fill="#005C6B" transform="translate(21.500000, 134.000000) scale(-1, 1) translate(-21.500000, -134.000000) " x="21" y="128" width="1" height="12"></rect>
            <rect id="Rectangle" fill="#005C6B" transform="translate(24.500000, 134.000000) scale(-1, 1) translate(-24.500000, -134.000000) " x="24" y="128" width="1" height="12"></rect>
            <rect id="Rectangle" fill="#005C6B" transform="translate(27.500000, 134.000000) scale(-1, 1) translate(-27.500000, -134.000000) " x="27" y="128" width="1" height="12"></rect>
            <rect id="Rectangle" fill="#005C6B" transform="translate(30.500000, 134.000000) scale(-1, 1) translate(-30.500000, -134.000000) " x="30" y="128" width="1" height="12"></rect>
            <rect id="Rectangle" fill="#77CB59" transform="translate(9.500000, 144.500000) scale(-1, 1) translate(-9.500000, -144.500000) " x="9" y="140" width="1" height="9"></rect>
            <rect id="Rectangle" fill="#77CB59" transform="translate(12.500000, 144.500000) scale(-1, 1) translate(-12.500000, -144.500000) " x="12" y="140" width="1" height="9"></rect>
            <rect id="Rectangle" fill="#77CB59" transform="translate(15.500000, 144.500000) scale(-1, 1) translate(-15.500000, -144.500000) " x="15" y="140" width="1" height="9"></rect>
            <rect id="Rectangle" fill="#77CB59" transform="translate(18.500000, 144.500000) scale(-1, 1) translate(-18.500000, -144.500000) " x="18" y="140" width="1" height="9"></rect>
            <rect id="Rectangle" fill="#77CB59" transform="translate(21.500000, 144.500000) scale(-1, 1) translate(-21.500000, -144.500000) " x="21" y="140" width="1" height="9"></rect>
            <rect id="Rectangle" fill="#77CB59" transform="translate(24.500000, 144.500000) scale(-1, 1) translate(-24.500000, -144.500000) " x="24" y="140" width="1" height="9"></rect>
            <rect id="Rectangle" fill="#77CB59" transform="translate(27.500000, 144.500000) scale(-1, 1) translate(-27.500000, -144.500000) " x="27" y="140" width="1" height="9"></rect>
            <rect id="Rectangle" fill="#77CB59" transform="translate(30.500000, 144.500000) scale(-1, 1) translate(-30.500000, -144.500000) " x="30" y="140" width="1" height="9"></rect>
            <rect id="Rectangle" stroke="#006372" fill="#006170" x="7" y="42" width="26" height="3" rx="1.5"></rect>
            <rect id="Rectangle" stroke="#006372" fill="#006170" x="6.5" y="49" width="27" height="3" rx="1.5"></rect>
            <rect id="Rectangle" stroke="#006372" fill="#006170" x="5.5" y="56" width="29" height="3" rx="1.5"></rect>
            <rect id="Rectangle" stroke="#006372" fill="#006170" x="4" y="63" width="32" height="3" rx="1.5"></rect>
            <rect id="Rectangle" stroke="#006372" fill="#006170" x="3" y="70" width="35" height="3" rx="1.5"></rect>
        </g>
        <g id="Group" transform="translate(378.000000, 608.000000)">
            <rect id="Rectangle" fill="#77CB59" x="8" y="0" width="24" height="107"></rect>
            <path d="M8,41.4472656 C8,60 0,73.000671 0,107 C0,149 3,136 3,140 C3,144 3,146 4,146 C7,146 33,146 36,146 C37,146 37,144 37,140 C37,136 40,149 40,107 C40,65 32,60 32,41.4472656 C32,22.8945313 8,22.8945313 8,41.4472656 Z" id="Path-2" fill="#77CB59"></path>
            <rect id="Rectangle" fill="#38A333" x="4" y="107" width="32" height="39"></rect>
            <rect id="Rectangle" fill="#38A333" x="9" y="146" width="22" height="3"></rect>
            <rect id="Rectangle" fill="#007766" x="15" y="104" width="10" height="30"></rect>
            <rect id="Rectangle" fill="#005C6B" x="9" y="126" width="22" height="2"></rect>
            <rect id="Rectangle" fill="#005C6B" transform="translate(9.500000, 134.000000) scale(-1, 1) translate(-9.500000, -134.000000) " x="9" y="128" width="1" height="12"></rect>
            <rect id="Rectangle" fill="#005C6B" transform="translate(12.500000, 134.000000) scale(-1, 1) translate(-12.500000, -134.000000) " x="12" y="128" width="1" height="12"></rect>
            <rect id="Rectangle" fill="#005C6B" transform="translate(15.500000, 134.000000) scale(-1, 1) translate(-15.500000, -134.000000) " x="15" y="128" width="1" height="12"></rect>
            <rect id="Rectangle" fill="#005C6B" transform="translate(18.500000, 134.000000) scale(-1, 1) translate(-18.500000, -134.000000) " x="18" y="128" width="1" height="12"></rect>
            <rect id="Rectangle" fill="#005C6B" transform="translate(21.500000, 134.000000) scale(-1, 1) translate(-21.500000, -134.000000) " x="21" y="128" width="1" height="12"></rect>
            <rect id="Rectangle" fill="#005C6B" transform="translate(24.500000, 134.000000) scale(-1, 1) translate(-24.500000, -134.000000) " x="24" y="128" width="1" height="12"></rect>
            <rect id="Rectangle" fill="#005C6B" transform="translate(27.500000, 134.000000) scale(-1, 1) translate(-27.500000, -134.000000) " x="27" y="128" width="1" height="12"></rect>
            <rect id="Rectangle" fill="#005C6B" transform="translate(30.500000, 134.000000) scale(-1, 1) translate(-30.500000, -134.000000) " x="30" y="128" width="1" height="12"></rect>
            <rect id="Rectangle" fill="#77CB59" transform="translate(9.500000, 144.500000) scale(-1, 1) translate(-9.500000, -144.500000) " x="9" y="140" width="1" height="9"></rect>
            <rect id="Rectangle" fill="#77CB59" transform="translate(12.500000, 144.500000) scale(-1, 1) translate(-12.500000, -144.500000) " x="12" y="140" width="1" height="9"></rect>
            <rect id="Rectangle" fill="#77CB59" transform="translate(15.500000, 144.500000) scale(-1, 1) translate(-15.500000, -144.500000) " x="15" y="140" width="1" height="9"></rect>
            <rect id="Rectangle" fill="#77CB59" transform="translate(18.500000, 144.500000) scale(-1, 1) translate(-18.500000, -144.500000) " x="18" y="140" width="1" height="9"></rect>
            <rect id="Rectangle" fill="#77CB59" transform="translate(21.500000, 144.500000) scale(-1, 1) translate(-21.500000, -144.500000) " x="21" y="140" width="1" height="9"></rect>
            <rect id="Rectangle" fill="#77CB59" transform="translate(24.500000, 144.500000) scale(-1, 1) translate(-24.500000, -144.500000) " x="24" y="140" width="1" height="9"></rect>
            <rect id="Rectangle" fill="#77CB59" transform="translate(27.500000, 144.500000) scale(-1, 1) translate(-27.500000, -144.500000) " x="27" y="140" width="1" height="9"></rect>
            <rect id="Rectangle" fill="#77CB59" transform="translate(30.500000, 144.500000) scale(-1, 1) translate(-30.500000, -144.500000) " x="30" y="140" width="1" height="9"></rect>
            <rect id="Rectangle" stroke="#006372" fill="#006170" x="7" y="42" width="26" height="3" rx="1.5"></rect>
            <rect id="Rectangle" stroke="#006372" fill="#006170" x="6.5" y="49" width="27" height="3" rx="1.5"></rect>
            <rect id="Rectangle" stroke="#006372" fill="#006170" x="5.5" y="56" width="29" height="3" rx="1.5"></rect>
            <rect id="Rectangle" stroke="#006372" fill="#006170" x="4" y="63" width="32" height="3" rx="1.5"></rect>
            <rect id="Rectangle" stroke="#006372" fill="#006170" x="3" y="70" width="35" height="3" rx="1.5"></rect>
        </g>
        <g id="Group" transform="translate(541.000000, 225.000000)">
            <rect id="Rectangle" fill="#77CB59" x="8" y="0" width="24" height="107"></rect>
            <path d="M8,41.4472656 C8,60 0,73.000671 0,107 C0,149 3,136 3,140 C3,144 3,146 4,146 C7,146 33,146 36,146 C37,146 37,144 37,140 C37,136 40,149 40,107 C40,65 32,60 32,41.4472656 C32,22.8945313 8,22.8945313 8,41.4472656 Z" id="Path-2" fill="#77CB59"></path>
            <rect id="Rectangle" fill="#38A333" x="4" y="107" width="32" height="39"></rect>
            <rect id="Rectangle" fill="#38A333" x="9" y="146" width="22" height="3"></rect>
            <rect id="Rectangle" fill="#007766" x="15" y="104" width="10" height="30"></rect>
            <rect id="Rectangle" fill="#005C6B" x="9" y="126" width="22" height="2"></rect>
            <rect id="Rectangle" fill="#005C6B" transform="translate(9.500000, 134.000000) scale(-1, 1) translate(-9.500000, -134.000000) " x="9" y="128" width="1" height="12"></rect>
            <rect id="Rectangle" fill="#005C6B" transform="translate(12.500000, 134.000000) scale(-1, 1) translate(-12.500000, -134.000000) " x="12" y="128" width="1" height="12"></rect>
            <rect id="Rectangle" fill="#005C6B" transform="translate(15.500000, 134.000000) scale(-1, 1) translate(-15.500000, -134.000000) " x="15" y="128" width="1" height="12"></rect>
            <rect id="Rectangle" fill="#005C6B" transform="translate(18.500000, 134.000000) scale(-1, 1) translate(-18.500000, -134.000000) " x="18" y="128" width="1" height="12"></rect>
            <rect id="Rectangle" fill="#005C6B" transform="translate(21.500000, 134.000000) scale(-1, 1) translate(-21.500000, -134.000000) " x="21" y="128" width="1" height="12"></rect>
            <rect id="Rectangle" fill="#005C6B" transform="translate(24.500000, 134.000000) scale(-1, 1) translate(-24.500000, -134.000000) " x="24" y="128" width="1" height="12"></rect>
            <rect id="Rectangle" fill="#005C6B" transform="translate(27.500000, 134.000000) scale(-1, 1) translate(-27.500000, -134.000000) " x="27" y="128" width="1" height="12"></rect>
            <rect id="Rectangle" fill="#005C6B" transform="translate(30.500000, 134.000000) scale(-1, 1) translate(-30.500000, -134.000000) " x="30" y="128" width="1" height="12"></rect>
            <rect id="Rectangle" fill="#77CB59" transform="translate(9.500000, 144.500000) scale(-1, 1) translate(-9.500000, -144.500000) " x="9" y="140" width="1" height="9"></rect>
            <rect id="Rectangle" fill="#77CB59" transform="translate(12.500000, 144.500000) scale(-1, 1) translate(-12.500000, -144.500000) " x="12" y="140" width="1" height="9"></rect>
            <rect id="Rectangle" fill="#77CB59" transform="translate(15.500000, 144.500000) scale(-1, 1) translate(-15.500000, -144.500000) " x="15" y="140" width="1" height="9"></rect>
            <rect id="Rectangle" fill="#77CB59" transform="translate(18.500000, 144.500000) scale(-1, 1) translate(-18.500000, -144.500000) " x="18" y="140" width="1" height="9"></rect>
            <rect id="Rectangle" fill="#77CB59" transform="translate(21.500000, 144.500000) scale(-1, 1) translate(-21.500000, -144.500000) " x="21" y="140" width="1" height="9"></rect>
            <rect id="Rectangle" fill="#77CB59" transform="translate(24.500000, 144.500000) scale(-1, 1) translate(-24.500000, -144.500000) " x="24" y="140" width="1" height="9"></rect>
            <rect id="Rectangle" fill="#77CB59" transform="translate(27.500000, 144.500000) scale(-1, 1) translate(-27.500000, -144.500000) " x="27" y="140" width="1" height="9"></rect>
            <rect id="Rectangle" fill="#77CB59" transform="translate(30.500000, 144.500000) scale(-1, 1) translate(-30.500000, -144.500000) " x="30" y="140" width="1" height="9"></rect>
            <rect id="Rectangle" stroke="#006372" fill="#006170" x="7" y="42" width="26" height="3" rx="1.5"></rect>
            <rect id="Rectangle" stroke="#006372" fill="#006170" x="6.5" y="49" width="27" height="3" rx="1.5"></rect>
            <rect id="Rectangle" stroke="#006372" fill="#006170" x="5.5" y="56" width="29" height="3" rx="1.5"></rect>
            <rect id="Rectangle" stroke="#006372" fill="#006170" x="4" y="63" width="32" height="3" rx="1.5"></rect>
            <rect id="Rectangle" stroke="#006372" fill="#006170" x="3" y="70" width="35" height="3" rx="1.5"></rect>
        </g>
        <g id="Group" transform="translate(521.000000, 671.000000)">
            <rect id="Rectangle" fill="#00C1D6" x="8" y="3" width="24" height="77"></rect>
            <path d="M8,14.4472656 C8,33 0,46.000671 0,80 C0,122 3,109 3,113 C3,117 3,119 4,119 C7,119 33,119 36,119 C37,119 37,117 37,113 C37,109 40,122 40,80 C40,38 32,33 32,14.4472656 C32,-4.10546875 8,-4.10546875 8,14.4472656 Z" id="Path-2" fill="#00C1D6"></path>
            <rect id="Rectangle" fill="#85CFDA" x="4" y="80" width="32" height="39"></rect>
            <rect id="Rectangle" fill="#85CFDA" x="9" y="119" width="22" height="3"></rect>
            <rect id="Rectangle" fill="#008394" x="15" y="77" width="10" height="30"></rect>
            <rect id="Rectangle" fill="#005C6B" x="9" y="99" width="22" height="2"></rect>
            <rect id="Rectangle" fill="#005C6B" transform="translate(9.500000, 107.000000) scale(-1, 1) translate(-9.500000, -107.000000) " x="9" y="101" width="1" height="12"></rect>
            <rect id="Rectangle" fill="#005C6B" transform="translate(12.500000, 107.000000) scale(-1, 1) translate(-12.500000, -107.000000) " x="12" y="101" width="1" height="12"></rect>
            <rect id="Rectangle" fill="#005C6B" transform="translate(15.500000, 107.000000) scale(-1, 1) translate(-15.500000, -107.000000) " x="15" y="101" width="1" height="12"></rect>
            <rect id="Rectangle" fill="#005C6B" transform="translate(18.500000, 107.000000) scale(-1, 1) translate(-18.500000, -107.000000) " x="18" y="101" width="1" height="12"></rect>
            <rect id="Rectangle" fill="#005C6B" transform="translate(21.500000, 107.000000) scale(-1, 1) translate(-21.500000, -107.000000) " x="21" y="101" width="1" height="12"></rect>
            <rect id="Rectangle" fill="#005C6B" transform="translate(24.500000, 107.000000) scale(-1, 1) translate(-24.500000, -107.000000) " x="24" y="101" width="1" height="12"></rect>
            <rect id="Rectangle" fill="#005C6B" transform="translate(27.500000, 107.000000) scale(-1, 1) translate(-27.500000, -107.000000) " x="27" y="101" width="1" height="12"></rect>
            <rect id="Rectangle" fill="#005C6B" transform="translate(30.500000, 107.000000) scale(-1, 1) translate(-30.500000, -107.000000) " x="30" y="101" width="1" height="12"></rect>
            <rect id="Rectangle" fill="#00C1D6" transform="translate(9.500000, 117.500000) scale(-1, 1) translate(-9.500000, -117.500000) " x="9" y="113" width="1" height="9"></rect>
            <rect id="Rectangle" fill="#00C1D6" transform="translate(12.500000, 117.500000) scale(-1, 1) translate(-12.500000, -117.500000) " x="12" y="113" width="1" height="9"></rect>
            <rect id="Rectangle" fill="#00C1D6" transform="translate(15.500000, 117.500000) scale(-1, 1) translate(-15.500000, -117.500000) " x="15" y="113" width="1" height="9"></rect>
            <rect id="Rectangle" fill="#00C1D6" transform="translate(18.500000, 117.500000) scale(-1, 1) translate(-18.500000, -117.500000) " x="18" y="113" width="1" height="9"></rect>
            <rect id="Rectangle" fill="#00C1D6" transform="translate(21.500000, 117.500000) scale(-1, 1) translate(-21.500000, -117.500000) " x="21" y="113" width="1" height="9"></rect>
            <rect id="Rectangle" fill="#00C1D6" transform="translate(24.500000, 117.500000) scale(-1, 1) translate(-24.500000, -117.500000) " x="24" y="113" width="1" height="9"></rect>
            <rect id="Rectangle" fill="#00C1D6" transform="translate(27.500000, 117.500000) scale(-1, 1) translate(-27.500000, -117.500000) " x="27" y="113" width="1" height="9"></rect>
            <rect id="Rectangle" fill="#00C1D6" transform="translate(30.500000, 117.500000) scale(-1, 1) translate(-30.500000, -117.500000) " x="30" y="113" width="1" height="9"></rect>
            <rect id="Rectangle" stroke="#006372" fill="#006170" x="7" y="15" width="26" height="3" rx="1.5"></rect>
            <rect id="Rectangle" stroke="#006372" fill="#006170" x="6.5" y="22" width="27" height="3" rx="1.5"></rect>
            <rect id="Rectangle" stroke="#006372" fill="#006170" x="5.5" y="29" width="29" height="3" rx="1.5"></rect>
            <rect id="Rectangle" stroke="#006372" fill="#006170" x="4" y="36" width="32" height="3" rx="1.5"></rect>
            <rect id="Rectangle" stroke="#006372" fill="#006170" x="3" y="43" width="35" height="3" rx="1.5"></rect>
        </g>
        <text id="Upgrade" font-family="Montserrat-Bold, Montserrat" font-size="236" font-weight="bold" fill="#77CB59">
            <tspan x="782" y="416">UPGRADE</tspan>
        </text>
        <text id="King-County" font-family="Montserrat-Bold, Montserrat" font-size="163.5" font-weight="bold" fill="#00C1D6">
            <tspan x="785" y="601">KING COUNTY</tspan>
        </text>
    </g>
</svg>