<svg height="435" viewBox="0 0 1198 435" width="1198" xmlns="http://www.w3.org/2000/svg"><g fill="none" fill-rule="evenodd"><g fill-rule="nonzero"><path d="m88.736 229.652c20.610667 0 37.524-6.411333 50.74-19.234s19.824-31.191333 19.824-55.106v-92.276h-36.816v91.096c0 13.216-3.028667 23.639333-9.086 31.27s-14.278 11.446-24.662 11.446-18.644-3.776-24.78-11.328c-6.136-7.709333-9.204-18.172-9.204-31.388v-91.096h-36.816v92.276c0 23.757333 6.6473333 42.086667 19.942 54.988s30.2473333 19.352 50.858 19.352zm145.612-1.652v-46.02h21.948c24.386667 0 42.519333-4.72 54.398-14.16s17.818-24.347333 17.818-44.722-5.782-35.4786667-17.346-45.312-30.011333-14.75-55.342-14.75h-58.292v164.964zm24.78-77.88h-24.78v-55.46h21.004c12.114667 0 21.043333 2.006 26.786 6.018s8.614 10.777333 8.614 20.296-2.202667 16.756-6.608 21.712-12.744 7.434-25.016 7.434zm174.404 79.768c28.949333 0 51.605333-9.125333 67.968-27.376v-58.528h-37.052v45.312c-8.496 4.877333-19.116 7.316-31.86 7.316s-23.718-4.680667-32.922-14.042-13.806-21.83-13.806-37.406 4.798667-28.123333 14.396-37.642c9.597333-9.5186667 21.397333-14.278 35.4-14.278 7.237333 0 13.963333 1.2193333 20.178 3.658s13.019333 6.883333 20.414 13.334l19.116-27.612c-17.464-15.576-38.035333-23.364-61.714-23.364s-43.896 8.1813333-60.652 24.544c-16.756 16.362667-25.134 36.776667-25.134 61.242s8.220667 44.722 24.662 60.77 36.776667 24.072 61.006 24.072zm137.588-1.888v-52.628h25.488l36.58 52.628h45.312l-41.772-59c20.925333-7.709333 31.388-24.78 31.388-51.212 0-19.1946667-5.467333-33.1186667-16.402-41.772s-29.224667-12.98-54.87-12.98h-62.54v164.964zm26.904-84.488h-26.904v-48.852h27.612c11.8 0 20.06 1.652 24.78 4.956s7.08 9.400667 7.08 18.29-2.281333 15.379333-6.844 19.47-13.137333 6.136-25.724 6.136zm125.552 84.488 15.34-35.636h69.148l15.34 35.636h39.176l-71.272-164.964h-35.636l-71.272 164.964zm70.564-67.968h-41.3l20.768-47.908zm143.96 67.968c31.466667 0 54.87-7.473333 70.21-22.42s23.01-35.242667 23.01-60.888-7.86667-45.666-23.6-60.062c-15.733333-14.396-38.310667-21.594-67.732-21.594h-58.292v164.964zm3.776-32.568h-23.364v-100.3h20.532c18.722667 0 32.607333 4.366 41.654 13.098s13.57 21.200667 13.57 37.406-4.523333 28.556-13.57 37.052-21.987333 12.744-38.822 12.744zm242.844 32.568v-32.568h-84.724v-34.22h73.868v-31.388h-73.868v-33.984h82.128v-32.804h-118.944v164.964z" fill="#77cb59"/><path d="m42.567 413v-32.373l11.445-12.753 33.5175 45.126h29.757c-5.232-7.303-13.1345-18.39375-23.7075-33.27225-6.2476818-8.791841-11.3345362-15.93759-15.260563-21.437248l-.5948457-.833115c-2.4403639-3.417197-4.4037277-6.157993-5.8900913-8.222387l45.453-50.5215h-31.5555l-43.164 46.9245v-46.9245h-25.506v114.2865zm116.085 0v-114.2865h-25.506v114.2865zm53.628 0v-71.613l54.4455 71.613h25.506v-114.2865h-25.506v73.575l-56.0805-73.575h-23.871v114.2865zm160.884 1.308c20.056 0 35.752-6.322 47.088-18.966v-40.548h-25.6695v31.392c-5.886 3.379-13.2435 5.0685-22.0725 5.0685s-16.43175-3.24275-22.80825-9.72825-9.56475-15.12375-9.56475-25.91475 3.3245-19.48375 9.9735-26.07825 14.824-9.89175 24.525-9.89175c5.014 0 9.67375.84475 13.97925 2.53425s9.01975 4.76875 14.14275 9.23775l13.2435-19.1295c-12.099-10.791-26.35075-16.1865-42.75525-16.1865s-30.411 5.668-42.0195 17.004-17.41275 25.47875-17.41275 42.42825 5.69525 30.98325 17.08575 42.10125 25.47875 16.677 42.26475 16.677zm166.68825 0c17.6035 0 32.89075-7.303 45.86175-21.909l-16.35-16.8405c-7.957 9.919-18.203 14.8785-30.738 14.8785-9.156 0-16.9495-3.2155-23.3805-9.6465s-9.6465-14.96025-9.6465-25.58775 3.40625-19.075 10.21875-25.3425 15.01475-9.40125 24.60675-9.40125c11.99 0 22.018 5.014 30.084 15.042l15.8595-17.985c-12.644-14.279-28.34-21.4185-47.088-21.4185-16.786 0-30.98325 5.668-42.59175 17.004s-17.41275 25.47875-17.41275 42.42825 5.69525 30.98325 17.08575 42.10125 25.8875 16.677 43.491 16.677zm116.98425-.1635c16.895 0 31.1195-5.6135 42.6735-16.8405 11.554-11.336 17.331-25.397 17.331-42.183s-5.777-30.81975-17.331-42.10125-25.7785-16.92225-42.6735-16.92225-31.1195 5.64075-42.6735 16.92225-17.331 25.31525-17.331 42.10125 5.777 30.81975 17.331 42.10125 25.7785 16.92225 42.6735 16.92225zm.08175-22.236c-9.5375 0-17.57625-3.56975-24.11625-10.70925s-9.81-15.805-9.81-25.9965 3.27-18.88425 9.81-26.07825 14.57875-10.791 24.11625-10.791 17.57625 3.597 24.11625 10.791 9.81 15.914 9.81 26.16c0 10.137-3.27 18.77525-9.81 25.91475s-14.57875 10.70925-24.11625 10.70925zm128.91975 22.236c14.279 0 25.9965-4.44175 35.1525-13.32525s13.734-21.60925 13.734-38.17725v-63.9285h-25.506v63.111c0 9.156-2.09825 16.37725-6.29475 21.66375s-9.89175 7.92975-17.08575 7.92975-12.9165-2.616-17.1675-7.848c-4.251-5.341-6.3765-12.5895-6.3765-21.7455v-63.111h-25.506v63.9285c0 16.459 4.60525 29.1575 13.81575 38.0955s20.95525 13.407 35.23425 13.407zm100.8795-1.1445v-71.613l54.4455 71.613h25.506v-114.2865h-25.506v73.575l-56.0805-73.575h-23.871v114.2865zm156.4695 0v-92.214h32.373v-22.0725h-90.252v22.0725h32.373v92.214zm100.2255 0v-45.126l39.567-69.1605h-27.6315l-24.6885 42.51-24.6885-42.51h-27.6315l39.567 69.1605v45.126z" fill="#00c1d6"/></g><g transform="matrix(1 0 0 -1 10.5 160)"><path d="m9.5 7h30v93h-30z" fill="#77cb59"/><path d="m10.5 17.5007646c0 23.3343527-10 39.6857021-10 82.4477188 0 52.8247106 3.75 36.4742046 3.75 41.5051296s0 7.546387 1.25 7.546387h40c1.25 0 1.25-2.515462 1.25-7.546387s3.75 11.319581 3.75-41.5051296c0-52.8247101-10-59.1133661-10-82.4477188 0-23.33435279-30-23.33435279-30 0z" fill="#77cb59"/><path d="m4.5 100h40v49h-40z" fill="#38a333"/><path d="m10.5 149h28v4h-28z" fill="#38a333"/><path d="m18.5 96h13v38h-13z" fill="#076"/><g fill="#005c6b"><path d="m10.5 124h28v3h-28z"/><path d="m11.5 127h1v15h-1z" transform="matrix(-1 0 0 1 24 0)"/><path d="m15.5 127h1v15h-1z" transform="matrix(-1 0 0 1 32 0)"/><path d="m18.5 127h1v15h-1z" transform="matrix(-1 0 0 1 38 0)"/><path d="m22.5 127h1v15h-1z" transform="matrix(-1 0 0 1 46 0)"/><path d="m26.5 127h1v15h-1z" transform="matrix(-1 0 0 1 54 0)"/><path d="m30.5 127h1v15h-1z" transform="matrix(-1 0 0 1 62 0)"/><path d="m33.5 127h1v15h-1z" transform="matrix(-1 0 0 1 68 0)"/><path d="m37.5 127h1v15h-1z" transform="matrix(-1 0 0 1 76 0)"/></g><g fill="#77cb59"><path d="m11.5 142h1v11h-1z" transform="matrix(-1 0 0 1 24 0)"/><path d="m15.5 142h1v11h-1z" transform="matrix(-1 0 0 1 32 0)"/><path d="m18.5 142h1v11h-1z" transform="matrix(-1 0 0 1 38 0)"/><path d="m22.5 142h1v11h-1z" transform="matrix(-1 0 0 1 46 0)"/><path d="m26.5 142h1v11h-1z" transform="matrix(-1 0 0 1 54 0)"/><path d="m30.5 142h1v11h-1z" transform="matrix(-1 0 0 1 62 0)"/><path d="m33.5 142h1v11h-1z" transform="matrix(-1 0 0 1 68 0)"/><path d="m37.5 142h1v11h-1z" transform="matrix(-1 0 0 1 76 0)"/></g><rect fill="#006170" height="4" rx="1.5" stroke="#006372" width="37" x="7.5" y="19"/><rect fill="#006170" height="4" rx="1.5" stroke="#006372" width="37" x="7.5" y="27"/><rect fill="#006170" height="4" rx="1.5" stroke="#006372" width="39" x="6.5" y="36"/><rect fill="#006170" height="4" rx="1.5" stroke="#006372" width="41" x="5.5" y="45"/><rect fill="#006170" height="4" rx="1.5" stroke="#006372" width="45" x="3.5" y="54"/></g></g></svg>