<svg height="997" viewBox="0 0 2039 997" width="2039" xmlns="http://www.w3.org/2000/svg"><g fill="none" fill-rule="evenodd"><g stroke-width="24"><path d="m480.484375-.0703125c-.322917 135.9114585-.484375 252.2682295-.484375 349.0703125 0 78.254948-46 94-88 94-37.829088 0-77 33.7306-77 91v360.140625" stroke="#00c1d6"/><path d="m561.484375-.0703125c-.322917 114.5781255-.484375 220.2682295-.484375 317.0703125" stroke="#77cb59"/><path d="m369.484375-.0703125c-.322917 157.9114585-.484375 285.2682295-.484375 382.0703125 0 127 59 129 93 147 37.55264 19.88081 79 37 79 129.859375v90.140625" stroke="#00c1d6"/><path d="m301.484375-.0703125c-.322917 29.2447917-.484375 92.2682292-.484375 189.0703125 0 78.254948-56 112-98 118-37.775592 5.396513-108 55.7306-108 113v134" stroke="#77cb59"/><path d="m427.484375-.0703125c-.322917 43.2819582-.484375 113.3053955-.484375 210.0703125 0 55 13.682604 116.614615-76 149-36 13-129 41-129 117.859375v157.140625" stroke="#00c1d6"/><path d="m193.484375-.0703125c-.322917 135.9114585-.484375 252.2682295-.484375 349.0703125 0 78.254948 64.893953 112.242428 109 123 41 10 96 54 96 104v125.000358" stroke="#77cb59"/></g><g transform="translate(295 797)"><path d="m8 0h24v107h-24z" fill="#00c1d6"/><path d="m8 41.4472656c0 18.5527344-8 31.5534054-8 65.5527344 0 42 3 29 3 33s0 6 1 6h32c1 0 1-2 1-6s3 9 3-33-8-47-8-65.5527344c0-18.5527343-24-18.5527343-24 0z" fill="#00c1d6"/><path d="m4 107h32v39h-32z" fill="#85cfda"/><path d="m9 146h22v3h-22z" fill="#85cfda"/><path d="m15 104h10v30h-10z" fill="#008394"/><g fill="#005c6b"><path d="m9 126h22v2h-22z"/><path d="m9 128h1v12h-1z" transform="matrix(-1 0 0 1 19 0)"/><path d="m12 128h1v12h-1z" transform="matrix(-1 0 0 1 25 0)"/><path d="m15 128h1v12h-1z" transform="matrix(-1 0 0 1 31 0)"/><path d="m18 128h1v12h-1z" transform="matrix(-1 0 0 1 37 0)"/><path d="m21 128h1v12h-1z" transform="matrix(-1 0 0 1 43 0)"/><path d="m24 128h1v12h-1z" transform="matrix(-1 0 0 1 49 0)"/><path d="m27 128h1v12h-1z" transform="matrix(-1 0 0 1 55 0)"/><path d="m30 128h1v12h-1z" transform="matrix(-1 0 0 1 61 0)"/></g><path d="m9 140h1v9h-1z" fill="#00c1d6" transform="matrix(-1 0 0 1 19 0)"/><path d="m12 140h1v9h-1z" fill="#00c1d6" transform="matrix(-1 0 0 1 25 0)"/><path d="m15 140h1v9h-1z" fill="#00c1d6" transform="matrix(-1 0 0 1 31 0)"/><path d="m18 140h1v9h-1z" fill="#00c1d6" transform="matrix(-1 0 0 1 37 0)"/><path d="m21 140h1v9h-1z" fill="#00c1d6" transform="matrix(-1 0 0 1 43 0)"/><path d="m24 140h1v9h-1z" fill="#00c1d6" transform="matrix(-1 0 0 1 49 0)"/><path d="m27 140h1v9h-1z" fill="#00c1d6" transform="matrix(-1 0 0 1 55 0)"/><path d="m30 140h1v9h-1z" fill="#00c1d6" transform="matrix(-1 0 0 1 61 0)"/><rect fill="#006170" height="3" rx="1.5" stroke="#006372" width="26" x="7" y="42"/><rect fill="#006170" height="3" rx="1.5" stroke="#006372" width="27" x="6.5" y="49"/><rect fill="#006170" height="3" rx="1.5" stroke="#006372" width="29" x="5.5" y="56"/><rect fill="#006170" height="3" rx="1.5" stroke="#006372" width="32" x="4" y="63"/><rect fill="#006170" height="3" rx="1.5" stroke="#006372" width="35" x="3" y="70"/></g><g transform="translate(202 532)"><path d="m8 0h24v107h-24z" fill="#00c1d6"/><path d="m8 41.4472656c0 18.5527344-8 31.5534054-8 65.5527344 0 42 3 29 3 33s0 6 1 6h32c1 0 1-2 1-6s3 9 3-33-8-47-8-65.5527344c0-18.5527343-24-18.5527343-24 0z" fill="#00c1d6"/><path d="m4 107h32v39h-32z" fill="#85cfda"/><path d="m9 146h22v3h-22z" fill="#85cfda"/><path d="m15 104h10v30h-10z" fill="#008394"/><g fill="#005c6b"><path d="m9 126h22v2h-22z"/><path d="m9 128h1v12h-1z" transform="matrix(-1 0 0 1 19 0)"/><path d="m12 128h1v12h-1z" transform="matrix(-1 0 0 1 25 0)"/><path d="m15 128h1v12h-1z" transform="matrix(-1 0 0 1 31 0)"/><path d="m18 128h1v12h-1z" transform="matrix(-1 0 0 1 37 0)"/><path d="m21 128h1v12h-1z" transform="matrix(-1 0 0 1 43 0)"/><path d="m24 128h1v12h-1z" transform="matrix(-1 0 0 1 49 0)"/><path d="m27 128h1v12h-1z" transform="matrix(-1 0 0 1 55 0)"/><path d="m30 128h1v12h-1z" transform="matrix(-1 0 0 1 61 0)"/></g><path d="m9 140h1v9h-1z" fill="#00c1d6" transform="matrix(-1 0 0 1 19 0)"/><path d="m12 140h1v9h-1z" fill="#00c1d6" transform="matrix(-1 0 0 1 25 0)"/><path d="m15 140h1v9h-1z" fill="#00c1d6" transform="matrix(-1 0 0 1 31 0)"/><path d="m18 140h1v9h-1z" fill="#00c1d6" transform="matrix(-1 0 0 1 37 0)"/><path d="m21 140h1v9h-1z" fill="#00c1d6" transform="matrix(-1 0 0 1 43 0)"/><path d="m24 140h1v9h-1z" fill="#00c1d6" transform="matrix(-1 0 0 1 49 0)"/><path d="m27 140h1v9h-1z" fill="#00c1d6" transform="matrix(-1 0 0 1 55 0)"/><path d="m30 140h1v9h-1z" fill="#00c1d6" transform="matrix(-1 0 0 1 61 0)"/><rect fill="#006170" height="3" rx="1.5" stroke="#006372" width="26" x="7" y="42"/><rect fill="#006170" height="3" rx="1.5" stroke="#006372" width="27" x="6.5" y="49"/><rect fill="#006170" height="3" rx="1.5" stroke="#006372" width="29" x="5.5" y="56"/><rect fill="#006170" height="3" rx="1.5" stroke="#006372" width="32" x="4" y="63"/><rect fill="#006170" height="3" rx="1.5" stroke="#006372" width="35" x="3" y="70"/></g><g transform="translate(75 450)"><path d="m8 0h24v107h-24z" fill="#77cb59"/><path d="m8 41.4472656c0 18.5527344-8 31.5534054-8 65.5527344 0 42 3 29 3 33s0 6 1 6h32c1 0 1-2 1-6s3 9 3-33-8-47-8-65.5527344c0-18.5527343-24-18.5527343-24 0z" fill="#77cb59"/><path d="m4 107h32v39h-32z" fill="#38a333"/><path d="m9 146h22v3h-22z" fill="#38a333"/><path d="m15 104h10v30h-10z" fill="#076"/><g fill="#005c6b"><path d="m9 126h22v2h-22z"/><path d="m9 128h1v12h-1z" transform="matrix(-1 0 0 1 19 0)"/><path d="m12 128h1v12h-1z" transform="matrix(-1 0 0 1 25 0)"/><path d="m15 128h1v12h-1z" transform="matrix(-1 0 0 1 31 0)"/><path d="m18 128h1v12h-1z" transform="matrix(-1 0 0 1 37 0)"/><path d="m21 128h1v12h-1z" transform="matrix(-1 0 0 1 43 0)"/><path d="m24 128h1v12h-1z" transform="matrix(-1 0 0 1 49 0)"/><path d="m27 128h1v12h-1z" transform="matrix(-1 0 0 1 55 0)"/><path d="m30 128h1v12h-1z" transform="matrix(-1 0 0 1 61 0)"/></g><path d="m9 140h1v9h-1z" fill="#77cb59" transform="matrix(-1 0 0 1 19 0)"/><path d="m12 140h1v9h-1z" fill="#77cb59" transform="matrix(-1 0 0 1 25 0)"/><path d="m15 140h1v9h-1z" fill="#77cb59" transform="matrix(-1 0 0 1 31 0)"/><path d="m18 140h1v9h-1z" fill="#77cb59" transform="matrix(-1 0 0 1 37 0)"/><path d="m21 140h1v9h-1z" fill="#77cb59" transform="matrix(-1 0 0 1 43 0)"/><path d="m24 140h1v9h-1z" fill="#77cb59" transform="matrix(-1 0 0 1 49 0)"/><path d="m27 140h1v9h-1z" fill="#77cb59" transform="matrix(-1 0 0 1 55 0)"/><path d="m30 140h1v9h-1z" fill="#77cb59" transform="matrix(-1 0 0 1 61 0)"/><rect fill="#006170" height="3" rx="1.5" stroke="#006372" width="26" x="7" y="42"/><rect fill="#006170" height="3" rx="1.5" stroke="#006372" width="27" x="6.5" y="49"/><rect fill="#006170" height="3" rx="1.5" stroke="#006372" width="29" x="5.5" y="56"/><rect fill="#006170" height="3" rx="1.5" stroke="#006372" width="32" x="4" y="63"/><rect fill="#006170" height="3" rx="1.5" stroke="#006372" width="35" x="3" y="70"/></g><g transform="translate(378 608)"><path d="m8 0h24v107h-24z" fill="#77cb59"/><path d="m8 41.4472656c0 18.5527344-8 31.5534054-8 65.5527344 0 42 3 29 3 33s0 6 1 6h32c1 0 1-2 1-6s3 9 3-33-8-47-8-65.5527344c0-18.5527343-24-18.5527343-24 0z" fill="#77cb59"/><path d="m4 107h32v39h-32z" fill="#38a333"/><path d="m9 146h22v3h-22z" fill="#38a333"/><path d="m15 104h10v30h-10z" fill="#076"/><g fill="#005c6b"><path d="m9 126h22v2h-22z"/><path d="m9 128h1v12h-1z" transform="matrix(-1 0 0 1 19 0)"/><path d="m12 128h1v12h-1z" transform="matrix(-1 0 0 1 25 0)"/><path d="m15 128h1v12h-1z" transform="matrix(-1 0 0 1 31 0)"/><path d="m18 128h1v12h-1z" transform="matrix(-1 0 0 1 37 0)"/><path d="m21 128h1v12h-1z" transform="matrix(-1 0 0 1 43 0)"/><path d="m24 128h1v12h-1z" transform="matrix(-1 0 0 1 49 0)"/><path d="m27 128h1v12h-1z" transform="matrix(-1 0 0 1 55 0)"/><path d="m30 128h1v12h-1z" transform="matrix(-1 0 0 1 61 0)"/></g><path d="m9 140h1v9h-1z" fill="#77cb59" transform="matrix(-1 0 0 1 19 0)"/><path d="m12 140h1v9h-1z" fill="#77cb59" transform="matrix(-1 0 0 1 25 0)"/><path d="m15 140h1v9h-1z" fill="#77cb59" transform="matrix(-1 0 0 1 31 0)"/><path d="m18 140h1v9h-1z" fill="#77cb59" transform="matrix(-1 0 0 1 37 0)"/><path d="m21 140h1v9h-1z" fill="#77cb59" transform="matrix(-1 0 0 1 43 0)"/><path d="m24 140h1v9h-1z" fill="#77cb59" transform="matrix(-1 0 0 1 49 0)"/><path d="m27 140h1v9h-1z" fill="#77cb59" transform="matrix(-1 0 0 1 55 0)"/><path d="m30 140h1v9h-1z" fill="#77cb59" transform="matrix(-1 0 0 1 61 0)"/><rect fill="#006170" height="3" rx="1.5" stroke="#006372" width="26" x="7" y="42"/><rect fill="#006170" height="3" rx="1.5" stroke="#006372" width="27" x="6.5" y="49"/><rect fill="#006170" height="3" rx="1.5" stroke="#006372" width="29" x="5.5" y="56"/><rect fill="#006170" height="3" rx="1.5" stroke="#006372" width="32" x="4" y="63"/><rect fill="#006170" height="3" rx="1.5" stroke="#006372" width="35" x="3" y="70"/></g><g transform="translate(541 225)"><path d="m8 0h24v107h-24z" fill="#77cb59"/><path d="m8 41.4472656c0 18.5527344-8 31.5534054-8 65.5527344 0 42 3 29 3 33s0 6 1 6h32c1 0 1-2 1-6s3 9 3-33-8-47-8-65.5527344c0-18.5527343-24-18.5527343-24 0z" fill="#77cb59"/><path d="m4 107h32v39h-32z" fill="#38a333"/><path d="m9 146h22v3h-22z" fill="#38a333"/><path d="m15 104h10v30h-10z" fill="#076"/><g fill="#005c6b"><path d="m9 126h22v2h-22z"/><path d="m9 128h1v12h-1z" transform="matrix(-1 0 0 1 19 0)"/><path d="m12 128h1v12h-1z" transform="matrix(-1 0 0 1 25 0)"/><path d="m15 128h1v12h-1z" transform="matrix(-1 0 0 1 31 0)"/><path d="m18 128h1v12h-1z" transform="matrix(-1 0 0 1 37 0)"/><path d="m21 128h1v12h-1z" transform="matrix(-1 0 0 1 43 0)"/><path d="m24 128h1v12h-1z" transform="matrix(-1 0 0 1 49 0)"/><path d="m27 128h1v12h-1z" transform="matrix(-1 0 0 1 55 0)"/><path d="m30 128h1v12h-1z" transform="matrix(-1 0 0 1 61 0)"/></g><path d="m9 140h1v9h-1z" fill="#77cb59" transform="matrix(-1 0 0 1 19 0)"/><path d="m12 140h1v9h-1z" fill="#77cb59" transform="matrix(-1 0 0 1 25 0)"/><path d="m15 140h1v9h-1z" fill="#77cb59" transform="matrix(-1 0 0 1 31 0)"/><path d="m18 140h1v9h-1z" fill="#77cb59" transform="matrix(-1 0 0 1 37 0)"/><path d="m21 140h1v9h-1z" fill="#77cb59" transform="matrix(-1 0 0 1 43 0)"/><path d="m24 140h1v9h-1z" fill="#77cb59" transform="matrix(-1 0 0 1 49 0)"/><path d="m27 140h1v9h-1z" fill="#77cb59" transform="matrix(-1 0 0 1 55 0)"/><path d="m30 140h1v9h-1z" fill="#77cb59" transform="matrix(-1 0 0 1 61 0)"/><rect fill="#006170" height="3" rx="1.5" stroke="#006372" width="26" x="7" y="42"/><rect fill="#006170" height="3" rx="1.5" stroke="#006372" width="27" x="6.5" y="49"/><rect fill="#006170" height="3" rx="1.5" stroke="#006372" width="29" x="5.5" y="56"/><rect fill="#006170" height="3" rx="1.5" stroke="#006372" width="32" x="4" y="63"/><rect fill="#006170" height="3" rx="1.5" stroke="#006372" width="35" x="3" y="70"/></g><g transform="translate(521 671)"><path d="m8 3h24v77h-24z" fill="#00c1d6"/><path d="m8 14.4472656c0 18.5527344-8 31.5534054-8 65.5527344 0 42 3 29 3 33s0 6 1 6h32c1 0 1-2 1-6s3 9 3-33-8-47-8-65.5527344c0-18.55273435-24-18.55273435-24 0z" fill="#00c1d6"/><path d="m4 80h32v39h-32z" fill="#85cfda"/><path d="m9 119h22v3h-22z" fill="#85cfda"/><path d="m15 77h10v30h-10z" fill="#008394"/><g fill="#005c6b"><path d="m9 99h22v2h-22z"/><path d="m9 101h1v12h-1z" transform="matrix(-1 0 0 1 19 0)"/><path d="m12 101h1v12h-1z" transform="matrix(-1 0 0 1 25 0)"/><path d="m15 101h1v12h-1z" transform="matrix(-1 0 0 1 31 0)"/><path d="m18 101h1v12h-1z" transform="matrix(-1 0 0 1 37 0)"/><path d="m21 101h1v12h-1z" transform="matrix(-1 0 0 1 43 0)"/><path d="m24 101h1v12h-1z" transform="matrix(-1 0 0 1 49 0)"/><path d="m27 101h1v12h-1z" transform="matrix(-1 0 0 1 55 0)"/><path d="m30 101h1v12h-1z" transform="matrix(-1 0 0 1 61 0)"/></g><path d="m9 113h1v9h-1z" fill="#00c1d6" transform="matrix(-1 0 0 1 19 0)"/><path d="m12 113h1v9h-1z" fill="#00c1d6" transform="matrix(-1 0 0 1 25 0)"/><path d="m15 113h1v9h-1z" fill="#00c1d6" transform="matrix(-1 0 0 1 31 0)"/><path d="m18 113h1v9h-1z" fill="#00c1d6" transform="matrix(-1 0 0 1 37 0)"/><path d="m21 113h1v9h-1z" fill="#00c1d6" transform="matrix(-1 0 0 1 43 0)"/><path d="m24 113h1v9h-1z" fill="#00c1d6" transform="matrix(-1 0 0 1 49 0)"/><path d="m27 113h1v9h-1z" fill="#00c1d6" transform="matrix(-1 0 0 1 55 0)"/><path d="m30 113h1v9h-1z" fill="#00c1d6" transform="matrix(-1 0 0 1 61 0)"/><rect fill="#006170" height="3" rx="1.5" stroke="#006372" width="26" x="7" y="15"/><rect fill="#006170" height="3" rx="1.5" stroke="#006372" width="27" x="6.5" y="22"/><rect fill="#006170" height="3" rx="1.5" stroke="#006372" width="29" x="5.5" y="29"/><rect fill="#006170" height="3" rx="1.5" stroke="#006372" width="32" x="4" y="36"/><rect fill="#006170" height="3" rx="1.5" stroke="#006372" width="35" x="3" y="43"/></g><text fill="#77cb59" font-family="Montserrat-Bold, Montserrat" font-size="236" font-weight="bold"><tspan x="782" y="416">UPGRADE</tspan></text><text fill="#00c1d6" font-family="Montserrat-Bold, Montserrat" font-size="163.5" font-weight="bold"><tspan x="785" y="601">KING COUNTY</tspan></text></g></svg>