<svg height="997" viewBox="0 0 2039 997" width="2039" xmlns="http://www.w3.org/2000/svg"><g fill="none" fill-rule="evenodd"><g stroke-width="24"><path d="m480.484375-.0703125c-.322917 135.9114585-.484375 252.2682295-.484375 349.0703125 0 78.254948-46 94-88 94-37.829088 0-77 33.7306-77 91v360.140625" stroke="#00c1d6"/><path d="m561.484375-.0703125c-.322917 114.5781255-.484375 220.2682295-.484375 317.0703125" stroke="#77cb59"/><path d="m369.484375-.0703125c-.322917 157.9114585-.484375 285.2682295-.484375 382.0703125 0 127 59 129 93 147 37.55264 19.88081 79 37 79 129.859375v90.140625" stroke="#00c1d6"/><path d="m301.484375-.0703125c-.322917 29.2447917-.484375 92.2682292-.484375 189.0703125 0 78.254948-56 112-98 118-37.775592 5.396513-108 55.7306-108 113v134" stroke="#77cb59"/><path d="m427.484375-.0703125c-.322917 43.2819582-.484375 113.3053955-.484375 210.0703125 0 55 13.682604 116.614615-76 149-36 13-129 41-129 117.859375v157.140625" stroke="#00c1d6"/><path d="m193.484375-.0703125c-.322917 135.9114585-.484375 252.2682295-.484375 349.0703125 0 78.254948 64.893953 112.242428 109 123 41 10 96 54 96 104v125.000358" stroke="#77cb59"/></g><g transform="translate(295 797)"><path d="m8 0h24v107h-24z" fill="#00c1d6"/><path d="m8 41.4472656c0 18.5527344-8 31.5534054-8 65.5527344 0 42 3 29 3 33s0 6 1 6h32c1 0 1-2 1-6s3 9 3-33-8-47-8-65.5527344c0-18.5527343-24-18.5527343-24 0z" fill="#00c1d6"/><path d="m4 107h32v39h-32z" fill="#85cfda"/><path d="m9 146h22v3h-22z" fill="#85cfda"/><path d="m15 104h10v30h-10z" fill="#008394"/><g fill="#005c6b"><path d="m9 126h22v2h-22z"/><path d="m9 128h1v12h-1z" transform="matrix(-1 0 0 1 19 0)"/><path d="m12 128h1v12h-1z" transform="matrix(-1 0 0 1 25 0)"/><path d="m15 128h1v12h-1z" transform="matrix(-1 0 0 1 31 0)"/><path d="m18 128h1v12h-1z" transform="matrix(-1 0 0 1 37 0)"/><path d="m21 128h1v12h-1z" transform="matrix(-1 0 0 1 43 0)"/><path d="m24 128h1v12h-1z" transform="matrix(-1 0 0 1 49 0)"/><path d="m27 128h1v12h-1z" transform="matrix(-1 0 0 1 55 0)"/><path d="m30 128h1v12h-1z" transform="matrix(-1 0 0 1 61 0)"/></g><path d="m9 140h1v9h-1z" fill="#00c1d6" transform="matrix(-1 0 0 1 19 0)"/><path d="m12 140h1v9h-1z" fill="#00c1d6" transform="matrix(-1 0 0 1 25 0)"/><path d="m15 140h1v9h-1z" fill="#00c1d6" transform="matrix(-1 0 0 1 31 0)"/><path d="m18 140h1v9h-1z" fill="#00c1d6" transform="matrix(-1 0 0 1 37 0)"/><path d="m21 140h1v9h-1z" fill="#00c1d6" transform="matrix(-1 0 0 1 43 0)"/><path d="m24 140h1v9h-1z" fill="#00c1d6" transform="matrix(-1 0 0 1 49 0)"/><path d="m27 140h1v9h-1z" fill="#00c1d6" transform="matrix(-1 0 0 1 55 0)"/><path d="m30 140h1v9h-1z" fill="#00c1d6" transform="matrix(-1 0 0 1 61 0)"/><rect fill="#006170" height="3" rx="1.5" stroke="#006372" width="26" x="7" y="42"/><rect fill="#006170" height="3" rx="1.5" stroke="#006372" width="27" x="6.5" y="49"/><rect fill="#006170" height="3" rx="1.5" stroke="#006372" width="29" x="5.5" y="56"/><rect fill="#006170" height="3" rx="1.5" stroke="#006372" width="32" x="4" y="63"/><rect fill="#006170" height="3" rx="1.5" stroke="#006372" width="35" x="3" y="70"/></g><g transform="translate(202 532)"><path d="m8 0h24v107h-24z" fill="#00c1d6"/><path d="m8 41.4472656c0 18.5527344-8 31.5534054-8 65.5527344 0 42 3 29 3 33s0 6 1 6h32c1 0 1-2 1-6s3 9 3-33-8-47-8-65.5527344c0-18.5527343-24-18.5527343-24 0z" fill="#00c1d6"/><path d="m4 107h32v39h-32z" fill="#85cfda"/><path d="m9 146h22v3h-22z" fill="#85cfda"/><path d="m15 104h10v30h-10z" fill="#008394"/><g fill="#005c6b"><path d="m9 126h22v2h-22z"/><path d="m9 128h1v12h-1z" transform="matrix(-1 0 0 1 19 0)"/><path d="m12 128h1v12h-1z" transform="matrix(-1 0 0 1 25 0)"/><path d="m15 128h1v12h-1z" transform="matrix(-1 0 0 1 31 0)"/><path d="m18 128h1v12h-1z" transform="matrix(-1 0 0 1 37 0)"/><path d="m21 128h1v12h-1z" transform="matrix(-1 0 0 1 43 0)"/><path d="m24 128h1v12h-1z" transform="matrix(-1 0 0 1 49 0)"/><path d="m27 128h1v12h-1z" transform="matrix(-1 0 0 1 55 0)"/><path d="m30 128h1v12h-1z" transform="matrix(-1 0 0 1 61 0)"/></g><path d="m9 140h1v9h-1z" fill="#00c1d6" transform="matrix(-1 0 0 1 19 0)"/><path d="m12 140h1v9h-1z" fill="#00c1d6" transform="matrix(-1 0 0 1 25 0)"/><path d="m15 140h1v9h-1z" fill="#00c1d6" transform="matrix(-1 0 0 1 31 0)"/><path d="m18 140h1v9h-1z" fill="#00c1d6" transform="matrix(-1 0 0 1 37 0)"/><path d="m21 140h1v9h-1z" fill="#00c1d6" transform="matrix(-1 0 0 1 43 0)"/><path d="m24 140h1v9h-1z" fill="#00c1d6" transform="matrix(-1 0 0 1 49 0)"/><path d="m27 140h1v9h-1z" fill="#00c1d6" transform="matrix(-1 0 0 1 55 0)"/><path d="m30 140h1v9h-1z" fill="#00c1d6" transform="matrix(-1 0 0 1 61 0)"/><rect fill="#006170" height="3" rx="1.5" stroke="#006372" width="26" x="7" y="42"/><rect fill="#006170" height="3" rx="1.5" stroke="#006372" width="27" x="6.5" y="49"/><rect fill="#006170" height="3" rx="1.5" stroke="#006372" width="29" x="5.5" y="56"/><rect fill="#006170" height="3" rx="1.5" stroke="#006372" width="32" x="4" y="63"/><rect fill="#006170" height="3" rx="1.5" stroke="#006372" width="35" x="3" y="70"/></g><g transform="translate(75 450)"><path d="m8 0h24v107h-24z" fill="#77cb59"/><path d="m8 41.4472656c0 18.5527344-8 31.5534054-8 65.5527344 0 42 3 29 3 33s0 6 1 6h32c1 0 1-2 1-6s3 9 3-33-8-47-8-65.5527344c0-18.5527343-24-18.5527343-24 0z" fill="#77cb59"/><path d="m4 107h32v39h-32z" fill="#38a333"/><path d="m9 146h22v3h-22z" fill="#38a333"/><path d="m15 104h10v30h-10z" fill="#076"/><g fill="#005c6b"><path d="m9 126h22v2h-22z"/><path d="m9 128h1v12h-1z" transform="matrix(-1 0 0 1 19 0)"/><path d="m12 128h1v12h-1z" transform="matrix(-1 0 0 1 25 0)"/><path d="m15 128h1v12h-1z" transform="matrix(-1 0 0 1 31 0)"/><path d="m18 128h1v12h-1z" transform="matrix(-1 0 0 1 37 0)"/><path d="m21 128h1v12h-1z" transform="matrix(-1 0 0 1 43 0)"/><path d="m24 128h1v12h-1z" transform="matrix(-1 0 0 1 49 0)"/><path d="m27 128h1v12h-1z" transform="matrix(-1 0 0 1 55 0)"/><path d="m30 128h1v12h-1z" transform="matrix(-1 0 0 1 61 0)"/></g><path d="m9 140h1v9h-1z" fill="#77cb59" transform="matrix(-1 0 0 1 19 0)"/><path d="m12 140h1v9h-1z" fill="#77cb59" transform="matrix(-1 0 0 1 25 0)"/><path d="m15 140h1v9h-1z" fill="#77cb59" transform="matrix(-1 0 0 1 31 0)"/><path d="m18 140h1v9h-1z" fill="#77cb59" transform="matrix(-1 0 0 1 37 0)"/><path d="m21 140h1v9h-1z" fill="#77cb59" transform="matrix(-1 0 0 1 43 0)"/><path d="m24 140h1v9h-1z" fill="#77cb59" transform="matrix(-1 0 0 1 49 0)"/><path d="m27 140h1v9h-1z" fill="#77cb59" transform="matrix(-1 0 0 1 55 0)"/><path d="m30 140h1v9h-1z" fill="#77cb59" transform="matrix(-1 0 0 1 61 0)"/><rect fill="#006170" height="3" rx="1.5" stroke="#006372" width="26" x="7" y="42"/><rect fill="#006170" height="3" rx="1.5" stroke="#006372" width="27" x="6.5" y="49"/><rect fill="#006170" height="3" rx="1.5" stroke="#006372" width="29" x="5.5" y="56"/><rect fill="#006170" height="3" rx="1.5" stroke="#006372" width="32" x="4" y="63"/><rect fill="#006170" height="3" rx="1.5" stroke="#006372" width="35" x="3" y="70"/></g><g transform="translate(378 608)"><path d="m8 0h24v107h-24z" fill="#77cb59"/><path d="m8 41.4472656c0 18.5527344-8 31.5534054-8 65.5527344 0 42 3 29 3 33s0 6 1 6h32c1 0 1-2 1-6s3 9 3-33-8-47-8-65.5527344c0-18.5527343-24-18.5527343-24 0z" fill="#77cb59"/><path d="m4 107h32v39h-32z" fill="#38a333"/><path d="m9 146h22v3h-22z" fill="#38a333"/><path d="m15 104h10v30h-10z" fill="#076"/><g fill="#005c6b"><path d="m9 126h22v2h-22z"/><path d="m9 128h1v12h-1z" transform="matrix(-1 0 0 1 19 0)"/><path d="m12 128h1v12h-1z" transform="matrix(-1 0 0 1 25 0)"/><path d="m15 128h1v12h-1z" transform="matrix(-1 0 0 1 31 0)"/><path d="m18 128h1v12h-1z" transform="matrix(-1 0 0 1 37 0)"/><path d="m21 128h1v12h-1z" transform="matrix(-1 0 0 1 43 0)"/><path d="m24 128h1v12h-1z" transform="matrix(-1 0 0 1 49 0)"/><path d="m27 128h1v12h-1z" transform="matrix(-1 0 0 1 55 0)"/><path d="m30 128h1v12h-1z" transform="matrix(-1 0 0 1 61 0)"/></g><path d="m9 140h1v9h-1z" fill="#77cb59" transform="matrix(-1 0 0 1 19 0)"/><path d="m12 140h1v9h-1z" fill="#77cb59" transform="matrix(-1 0 0 1 25 0)"/><path d="m15 140h1v9h-1z" fill="#77cb59" transform="matrix(-1 0 0 1 31 0)"/><path d="m18 140h1v9h-1z" fill="#77cb59" transform="matrix(-1 0 0 1 37 0)"/><path d="m21 140h1v9h-1z" fill="#77cb59" transform="matrix(-1 0 0 1 43 0)"/><path d="m24 140h1v9h-1z" fill="#77cb59" transform="matrix(-1 0 0 1 49 0)"/><path d="m27 140h1v9h-1z" fill="#77cb59" transform="matrix(-1 0 0 1 55 0)"/><path d="m30 140h1v9h-1z" fill="#77cb59" transform="matrix(-1 0 0 1 61 0)"/><rect fill="#006170" height="3" rx="1.5" stroke="#006372" width="26" x="7" y="42"/><rect fill="#006170" height="3" rx="1.5" stroke="#006372" width="27" x="6.5" y="49"/><rect fill="#006170" height="3" rx="1.5" stroke="#006372" width="29" x="5.5" y="56"/><rect fill="#006170" height="3" rx="1.5" stroke="#006372" width="32" x="4" y="63"/><rect fill="#006170" height="3" rx="1.5" stroke="#006372" width="35" x="3" y="70"/></g><g transform="translate(541 225)"><path d="m8 0h24v107h-24z" fill="#77cb59"/><path d="m8 41.4472656c0 18.5527344-8 31.5534054-8 65.5527344 0 42 3 29 3 33s0 6 1 6h32c1 0 1-2 1-6s3 9 3-33-8-47-8-65.5527344c0-18.5527343-24-18.5527343-24 0z" fill="#77cb59"/><path d="m4 107h32v39h-32z" fill="#38a333"/><path d="m9 146h22v3h-22z" fill="#38a333"/><path d="m15 104h10v30h-10z" fill="#076"/><g fill="#005c6b"><path d="m9 126h22v2h-22z"/><path d="m9 128h1v12h-1z" transform="matrix(-1 0 0 1 19 0)"/><path d="m12 128h1v12h-1z" transform="matrix(-1 0 0 1 25 0)"/><path d="m15 128h1v12h-1z" transform="matrix(-1 0 0 1 31 0)"/><path d="m18 128h1v12h-1z" transform="matrix(-1 0 0 1 37 0)"/><path d="m21 128h1v12h-1z" transform="matrix(-1 0 0 1 43 0)"/><path d="m24 128h1v12h-1z" transform="matrix(-1 0 0 1 49 0)"/><path d="m27 128h1v12h-1z" transform="matrix(-1 0 0 1 55 0)"/><path d="m30 128h1v12h-1z" transform="matrix(-1 0 0 1 61 0)"/></g><path d="m9 140h1v9h-1z" fill="#77cb59" transform="matrix(-1 0 0 1 19 0)"/><path d="m12 140h1v9h-1z" fill="#77cb59" transform="matrix(-1 0 0 1 25 0)"/><path d="m15 140h1v9h-1z" fill="#77cb59" transform="matrix(-1 0 0 1 31 0)"/><path d="m18 140h1v9h-1z" fill="#77cb59" transform="matrix(-1 0 0 1 37 0)"/><path d="m21 140h1v9h-1z" fill="#77cb59" transform="matrix(-1 0 0 1 43 0)"/><path d="m24 140h1v9h-1z" fill="#77cb59" transform="matrix(-1 0 0 1 49 0)"/><path d="m27 140h1v9h-1z" fill="#77cb59" transform="matrix(-1 0 0 1 55 0)"/><path d="m30 140h1v9h-1z" fill="#77cb59" transform="matrix(-1 0 0 1 61 0)"/><rect fill="#006170" height="3" rx="1.5" stroke="#006372" width="26" x="7" y="42"/><rect fill="#006170" height="3" rx="1.5" stroke="#006372" width="27" x="6.5" y="49"/><rect fill="#006170" height="3" rx="1.5" stroke="#006372" width="29" x="5.5" y="56"/><rect fill="#006170" height="3" rx="1.5" stroke="#006372" width="32" x="4" y="63"/><rect fill="#006170" height="3" rx="1.5" stroke="#006372" width="35" x="3" y="70"/></g><g transform="translate(521 671)"><path d="m8 3h24v77h-24z" fill="#00c1d6"/><path d="m8 14.4472656c0 18.5527344-8 31.5534054-8 65.5527344 0 42 3 29 3 33s0 6 1 6h32c1 0 1-2 1-6s3 9 3-33-8-47-8-65.5527344c0-18.55273435-24-18.55273435-24 0z" fill="#00c1d6"/><path d="m4 80h32v39h-32z" fill="#85cfda"/><path d="m9 119h22v3h-22z" fill="#85cfda"/><path d="m15 77h10v30h-10z" fill="#008394"/><g fill="#005c6b"><path d="m9 99h22v2h-22z"/><path d="m9 101h1v12h-1z" transform="matrix(-1 0 0 1 19 0)"/><path d="m12 101h1v12h-1z" transform="matrix(-1 0 0 1 25 0)"/><path d="m15 101h1v12h-1z" transform="matrix(-1 0 0 1 31 0)"/><path d="m18 101h1v12h-1z" transform="matrix(-1 0 0 1 37 0)"/><path d="m21 101h1v12h-1z" transform="matrix(-1 0 0 1 43 0)"/><path d="m24 101h1v12h-1z" transform="matrix(-1 0 0 1 49 0)"/><path d="m27 101h1v12h-1z" transform="matrix(-1 0 0 1 55 0)"/><path d="m30 101h1v12h-1z" transform="matrix(-1 0 0 1 61 0)"/></g><path d="m9 113h1v9h-1z" fill="#00c1d6" transform="matrix(-1 0 0 1 19 0)"/><path d="m12 113h1v9h-1z" fill="#00c1d6" transform="matrix(-1 0 0 1 25 0)"/><path d="m15 113h1v9h-1z" fill="#00c1d6" transform="matrix(-1 0 0 1 31 0)"/><path d="m18 113h1v9h-1z" fill="#00c1d6" transform="matrix(-1 0 0 1 37 0)"/><path d="m21 113h1v9h-1z" fill="#00c1d6" transform="matrix(-1 0 0 1 43 0)"/><path d="m24 113h1v9h-1z" fill="#00c1d6" transform="matrix(-1 0 0 1 49 0)"/><path d="m27 113h1v9h-1z" fill="#00c1d6" transform="matrix(-1 0 0 1 55 0)"/><path d="m30 113h1v9h-1z" fill="#00c1d6" transform="matrix(-1 0 0 1 61 0)"/><rect fill="#006170" height="3" rx="1.5" stroke="#006372" width="26" x="7" y="15"/><rect fill="#006170" height="3" rx="1.5" stroke="#006372" width="27" x="6.5" y="22"/><rect fill="#006170" height="3" rx="1.5" stroke="#006372" width="29" x="5.5" y="29"/><rect fill="#006170" height="3" rx="1.5" stroke="#006372" width="32" x="4" y="36"/><rect fill="#006170" height="3" rx="1.5" stroke="#006372" width="35" x="3" y="43"/></g><path d="m870.736 447.652c20.610667 0 37.524-6.411333 50.74-19.234s19.824-31.191333 19.824-55.106v-92.276h-36.816v91.096c0 13.216-3.028667 23.639333-9.086 31.27s-14.278 11.446-24.662 11.446-18.644-3.776-24.78-11.328c-6.136-7.709333-9.204-18.172-9.204-31.388v-91.096h-36.816v92.276c0 23.757333 6.647333 42.086667 19.942 54.988s30.247333 19.352 50.858 19.352zm145.612-1.652v-46.02h21.948c24.38667 0 42.51933-4.72 54.398-14.16s17.818-24.347333 17.818-44.722-5.782-35.478667-17.346-45.312-30.01133-14.75-55.342-14.75h-58.292v164.964zm24.78-77.88h-24.78v-55.46h21.004c12.11467 0 21.04333 2.006 26.786 6.018s8.614 10.777333 8.614 20.296-2.20267 16.756-6.608 21.712-12.744 7.434-25.016 7.434zm174.404 79.768c28.94933 0 51.60533-9.125333 67.968-27.376v-58.528h-37.052v45.312c-8.496 4.877333-19.116 7.316-31.86 7.316s-23.718-4.680667-32.922-14.042-13.806-21.83-13.806-37.406 4.79867-28.123333 14.396-37.642 21.39733-14.278 35.4-14.278c7.23733 0 13.96333 1.219333 20.178 3.658s13.01933 6.883333 20.414 13.334l19.116-27.612c-17.464-15.576-38.03533-23.364-61.714-23.364s-43.896 8.181333-60.652 24.544-25.134 36.776667-25.134 61.242 8.22067 44.722 24.662 60.77 36.77667 24.072 61.006 24.072zm137.588-1.888v-52.628h25.488l36.58 52.628h45.312l-41.772-59c20.92533-7.709333 31.388-24.78 31.388-51.212 0-19.194667-5.46733-33.118667-16.402-41.772s-29.22467-12.98-54.87-12.98h-62.54v164.964zm26.904-84.488h-26.904v-48.852h27.612c11.8 0 20.06 1.652 24.78 4.956s7.08 9.400667 7.08 18.29-2.28133 15.379333-6.844 19.47-13.13733 6.136-25.724 6.136zm125.552 84.488 15.34-35.636h69.148l15.34 35.636h39.176l-71.272-164.964h-35.636l-71.272 164.964zm70.564-67.968h-41.3l20.768-47.908zm143.96 67.968c31.46667 0 54.87-7.473333 70.21-22.42s23.01-35.242667 23.01-60.888-7.86667-45.666-23.6-60.062-38.31067-21.594-67.732-21.594h-58.292v164.964zm3.776-32.568h-23.364v-100.3h20.532c18.72267 0 32.60733 4.366 41.654 13.098s13.57 21.200667 13.57 37.406-4.52333 28.556-13.57 37.052-21.98733 12.744-38.822 12.744zm242.844 32.568v-32.568h-84.724v-34.22h73.868v-31.388h-73.868v-33.984h82.128v-32.804h-118.944v164.964z" fill="#77cb59" fill-rule="nonzero"/><path d="m824.567 631v-32.373l11.445-12.753 33.5175 45.126h29.757c-5.232-7.303-13.1345-18.39375-23.7075-33.27225-6.247682-8.791841-11.334536-15.93759-15.260563-21.437248l-.594846-.833115c-2.440364-3.417197-4.403727-6.157993-5.890091-8.222387l45.453-50.5215h-31.5555l-43.164 46.9245v-46.9245h-25.506v114.2865zm116.085 0v-114.2865h-25.506v114.2865zm53.628 0v-71.613l54.4455 71.613h25.506v-114.2865h-25.506v73.575l-56.0805-73.575h-23.871v114.2865zm160.884 1.308c20.056 0 35.752-6.322 47.088-18.966v-40.548h-25.6695v31.392c-5.886 3.379-13.2435 5.0685-22.0725 5.0685s-16.43175-3.24275-22.80825-9.72825-9.56475-15.12375-9.56475-25.91475 3.3245-19.48375 9.9735-26.07825 14.824-9.89175 24.525-9.89175c5.014 0 9.67375.84475 13.97925 2.53425s9.01975 4.76875 14.14275 9.23775l13.2435-19.1295c-12.099-10.791-26.35075-16.1865-42.75525-16.1865s-30.411 5.668-42.0195 17.004-17.41275 25.47875-17.41275 42.42825 5.69525 30.98325 17.08575 42.10125 25.47875 16.677 42.26475 16.677zm166.68825 0c17.6035 0 32.89075-7.303 45.86175-21.909l-16.35-16.8405c-7.957 9.919-18.203 14.8785-30.738 14.8785-9.156 0-16.9495-3.2155-23.3805-9.6465s-9.6465-14.96025-9.6465-25.58775 3.40625-19.075 10.21875-25.3425 15.01475-9.40125 24.60675-9.40125c11.99 0 22.018 5.014 30.084 15.042l15.8595-17.985c-12.644-14.279-28.34-21.4185-47.088-21.4185-16.786 0-30.98325 5.668-42.59175 17.004s-17.41275 25.47875-17.41275 42.42825 5.69525 30.98325 17.08575 42.10125 25.8875 16.677 43.491 16.677zm116.98425-.1635c16.895 0 31.1195-5.6135 42.6735-16.8405 11.554-11.336 17.331-25.397 17.331-42.183s-5.777-30.81975-17.331-42.10125-25.7785-16.92225-42.6735-16.92225-31.1195 5.64075-42.6735 16.92225-17.331 25.31525-17.331 42.10125 5.777 30.81975 17.331 42.10125 25.7785 16.92225 42.6735 16.92225zm.08175-22.236c-9.5375 0-17.57625-3.56975-24.11625-10.70925s-9.81-15.805-9.81-25.9965 3.27-18.88425 9.81-26.07825 14.57875-10.791 24.11625-10.791 17.57625 3.597 24.11625 10.791 9.81 15.914 9.81 26.16c0 10.137-3.27 18.77525-9.81 25.91475s-14.57875 10.70925-24.11625 10.70925zm128.91975 22.236c14.279 0 25.9965-4.44175 35.1525-13.32525s13.734-21.60925 13.734-38.17725v-63.9285h-25.506v63.111c0 9.156-2.09825 16.37725-6.29475 21.66375s-9.89175 7.92975-17.08575 7.92975-12.9165-2.616-17.1675-7.848c-4.251-5.341-6.3765-12.5895-6.3765-21.7455v-63.111h-25.506v63.9285c0 16.459 4.60525 29.1575 13.81575 38.0955s20.95525 13.407 35.23425 13.407zm100.8795-1.1445v-71.613l54.4455 71.613h25.506v-114.2865h-25.506v73.575l-56.0805-73.575h-23.871v114.2865zm156.4695 0v-92.214h32.373v-22.0725h-90.252v22.0725h32.373v92.214zm100.2255 0v-45.126l39.567-69.1605h-27.6315l-24.6885 42.51-24.6885-42.51h-27.6315l39.567 69.1605v45.126z" fill="#00c1d6" fill-rule="nonzero"/></g></svg>